<?xml version="1.0" encoding="UTF-8" standalone="no"?>
<svg
   xmlns:osb="http://www.openswatchbook.org/uri/2009/osb"
   xmlns:dc="http://purl.org/dc/elements/1.1/"
   xmlns:cc="http://creativecommons.org/ns#"
   xmlns:rdf="http://www.w3.org/1999/02/22-rdf-syntax-ns#"
   xmlns:svg="http://www.w3.org/2000/svg"
   xmlns="http://www.w3.org/2000/svg"
   xmlns:sodipodi="http://sodipodi.sourceforge.net/DTD/sodipodi-0.dtd"
   xmlns:inkscape="http://www.inkscape.org/namespaces/inkscape"
   aria-hidden="true"
   focusable="false"
   data-prefix="fas"
   data-icon="chart-line"
   class="svg-inline--fa fa-chart-line fa-w-16"
   role="img"
   viewBox="0 0 512 512"
   version="1.1"
   id="svg4"
   sodipodi:docname="chart-line-solid.svg"
   inkscape:version="0.92.4 (5da689c313, 2019-01-14)">
  <metadata
     id="metadata10">
    <rdf:RDF>
      <cc:Work
         rdf:about="">
        <dc:format>image/svg+xml</dc:format>
        <dc:type
           rdf:resource="http://purl.org/dc/dcmitype/StillImage" />
        <dc:title></dc:title>
      </cc:Work>
    </rdf:RDF>
  </metadata>
  <defs
     id="defs8">
    <linearGradient
       id="linearGradient827"
       osb:paint="solid">
      <stop
         style="stop-color:#000000;stop-opacity:1;"
         offset="0"
         id="stop825" />
    </linearGradient>
  </defs>
  <sodipodi:namedview
     pagecolor="#ffffff"
     bordercolor="#666666"
     borderopacity="1"
     objecttolerance="10"
     gridtolerance="10"
     guidetolerance="10"
     inkscape:pageopacity="0"
     inkscape:pageshadow="2"
     inkscape:window-width="1836"
     inkscape:window-height="2039"
     id="namedview6"
     showgrid="false"
     inkscape:snap-bbox="true"
     inkscape:snap-bbox-midpoints="true"
     inkscape:zoom="0.921875"
     inkscape:cx="260.22828"
     inkscape:cy="666.97516"
     inkscape:window-x="1007"
     inkscape:window-y="88"
     inkscape:window-maximized="0"
     inkscape:current-layer="svg4" />
  <rect
     style="fill:#f2f2f2;fill-opacity:1"
     id="rect819"
     width="512"
     height="512"
     x="0"
     y="0" />
  <g
     id="g833"
     transform="matrix(0.95985124,0,0,0.93234402,10.278082,17.319931)">
    <path
       sodipodi:nodetypes="scssssssssss"
       style="fill:#ff7d00;fill-opacity:1;stroke:#ff7d00;stroke-opacity:1"
       inkscape:connector-curvature="0"
       d="M 496,384 H 64 V 80 C 64,71.16 56.84,64 48,64 H 16 C 7.16,64 2e-6,71.16 2e-6,80 V 416 C 2e-6,433.67 14.33,448 32,448 h 464 c 8.84,0 16,-7.16 16,-16 v -32 c 0,-8.84 -7.16,-16 -16,-16 z"
       id="path821" />
    <path
       sodipodi:nodetypes="sssccscsssccsccsscs"
       style="fill:#bb0400;fill-opacity:1"
       inkscape:connector-curvature="0"
       d="M 464,96 H 345.94 c -21.38,0 -32.09,25.85 -16.97,40.97 l 32.4,32.4 -73.37,73.38 -73.37,-73.37 c -12.5,-12.5 -32.76,-12.5 -45.25,0 l -68.69,68.69 c -6.25,6.25 -6.25,16.38 0,22.63 l 22.62,22.62 c 6.25,6.25 16.38,6.25 22.63,0 l 46.06,-46.07 73.37,73.37 c 12.5,12.5 32.76,12.5 45.25,0 l 96,-96 32.4,32.4 c 15.12,15.12 40.97,4.41 40.97,-16.97 V 112 C 480,103.16 472.84,96 464,96 Z"
       id="path823" />
  </g>
</svg>
